<svg id="Capa_1" enable-background="new 0 0 512 512" height="50" viewBox="0 0 512 512" width="50" xmlns="http://www.w3.org/2000/svg">
    <g>
        <path d="m117.938 241.278c-.211.502-.267 1.046-.472 1.549 6.13-.833 12.226-1.827 18.534-1.827 15.987 0 31.115 3.281 45.359 8.405 19.594-30.401 49.755-38.108 53.87-40.748l-18.955-56.836c-6.021 3.76-68.841 18.74-98.336 89.457z" />
        <path d="m31 289.164v2.792c2.717-3.387 5.032-7.018 8.101-10.175 15.293-15.731 33.973-26.633 54.245-33.338 9.758-85.882 47.73-130.692 52.352-140.993l-49.923-33.266c-2.495 5.539-64.775 91.232-64.775 214.98z" />
        <path d="m179.372 387.347c-5.065 19.303-22.5 33.653-43.372 33.653-24.814 0-45-20.186-45-45s20.186-45 45-45c17.88 0 33.224 10.56 40.479 25.701l57.037-19.016c-15.366-38.952-53.173-66.685-97.516-66.685-59.509 0-106.644 48.591-104.956 108.003-1.296 76.287 27.718 126.967 29.766 132.997h119.19v-14.106c.894-14.912 9.716-30.121 22.87-41.005 24.229-20.069 38.13-49.541 38.13-80.889 0-3.047-.643-5.916-.899-8.897z" />
        <path d="m394.062 270.722c.211-.502.267-1.046.472-1.549-6.13.833-12.226 1.827-18.534 1.827-15.987 0-31.115-3.281-45.359-8.405-19.594 30.401-49.755 38.108-53.87 40.748l18.955 56.836c6.021-3.76 68.841-18.74 98.336-89.457z" />
        <path d="m481 220.044c-2.717 3.387-5.032 7.018-8.101 10.175-15.293 15.731-33.973 26.633-54.245 33.338-9.758 85.882-47.73 130.692-52.352 140.993l49.922 33.267c2.496-5.54 64.776-91.233 64.776-214.981z" />
        <path d="m309.13 55.111c-24.229 20.069-38.13 49.541-38.13 80.889 0 3.047.643 5.916.899 8.897l60.729-20.244c5.065-19.303 22.5-33.653 43.372-33.653 24.814 0 45 20.186 45 45s-20.186 45-45 45c-17.88 0-33.224-10.56-40.479-25.701l-57.037 19.016c15.366 38.952 53.173 66.685 97.516 66.685 59.509 0 106.644-48.591 104.956-108.003 1.296-76.287-27.718-126.967-29.766-132.997h-120.19v14.106c-.894 14.913-8.716 30.122-21.87 41.005z" />
    </g>
</svg>